<mxfile host="app.diagrams.net" modified="2020-07-16T20:11:20.747Z" agent="5.0 (X11)" etag="o7hi1f3z-dHdx1e4DSgH" version="13.4.2" type="github" pages="5">
  <diagram id="_fwJIGNGa4b0pD0JgCGG" name="standard">
    <mxGraphModel dx="2249" dy="2035" grid="1" gridSize="10" guides="1" tooltips="1" connect="1" arrows="1" fold="1" page="1" pageScale="1" pageWidth="827" pageHeight="1169" math="1" shadow="0" extFonts="PT Serif^https://fonts.googleapis.com/css?family=PT+Serif">
      <root>
        <mxCell id="0" />
        <mxCell id="1" parent="0" />
        <mxCell id="S-L6jYuYh9RfgFqw79Dy-2" value="" style="ellipse;whiteSpace=wrap;html=1;aspect=fixed;strokeWidth=2;" parent="1" vertex="1">
          <mxGeometry x="160" y="120" width="320" height="320" as="geometry" />
        </mxCell>
        <mxCell id="S-L6jYuYh9RfgFqw79Dy-3" value="" style="ellipse;whiteSpace=wrap;html=1;aspect=fixed;strokeWidth=2;" parent="1" vertex="1">
          <mxGeometry x="480" y="120" width="320" height="320" as="geometry" />
        </mxCell>
        <mxCell id="S-L6jYuYh9RfgFqw79Dy-5" value="" style="endArrow=classic;html=1;strokeWidth=2;" parent="1" edge="1">
          <mxGeometry width="50" height="50" relative="1" as="geometry">
            <mxPoint x="480" as="sourcePoint" />
            <mxPoint x="480" y="560" as="targetPoint" />
          </mxGeometry>
        </mxCell>
        <mxCell id="S-L6jYuYh9RfgFqw79Dy-6" value="" style="endArrow=classic;html=1;strokeWidth=2;" parent="1" edge="1">
          <mxGeometry width="50" height="50" relative="1" as="geometry">
            <mxPoint y="279.8399999999999" as="sourcePoint" />
            <mxPoint x="960" y="280" as="targetPoint" />
          </mxGeometry>
        </mxCell>
        <mxCell id="S-L6jYuYh9RfgFqw79Dy-7" value="" style="endArrow=classic;html=1;strokeWidth=2;" parent="1" edge="1">
          <mxGeometry width="50" height="50" relative="1" as="geometry">
            <mxPoint x="480" y="280" as="sourcePoint" />
            <mxPoint x="880" y="520" as="targetPoint" />
          </mxGeometry>
        </mxCell>
        <mxCell id="S-L6jYuYh9RfgFqw79Dy-9" value="" style="verticalLabelPosition=bottom;verticalAlign=top;html=1;shape=mxgraph.basic.arc;startAngle=0.25;endAngle=0.5;strokeWidth=2;" parent="1" vertex="1">
          <mxGeometry x="320" y="120" width="320" height="320" as="geometry" />
        </mxCell>
        <mxCell id="S-L6jYuYh9RfgFqw79Dy-14" value="&lt;div style=&quot;font-size: 30px;&quot;&gt;$$\phi&#39;$$&lt;/div&gt;" style="text;html=1;strokeColor=none;fillColor=none;align=center;verticalAlign=middle;whiteSpace=wrap;rounded=0;fontSize=30;fontFamily=PT Serif;strokeWidth=2;" parent="1" vertex="1">
          <mxGeometry x="570" y="290" width="80" height="40" as="geometry" />
        </mxCell>
        <mxCell id="S-L6jYuYh9RfgFqw79Dy-16" value="$$\theta&#39;$$" style="text;html=1;strokeColor=none;fillColor=none;align=center;verticalAlign=middle;whiteSpace=wrap;rounded=0;fontSize=30;fontFamily=PT Serif;strokeWidth=2;" parent="1" vertex="1">
          <mxGeometry x="490" y="330" width="80" height="40" as="geometry" />
        </mxCell>
        <mxCell id="S-L6jYuYh9RfgFqw79Dy-18" value="$$v$$" style="text;html=1;strokeColor=none;fillColor=none;align=center;verticalAlign=middle;whiteSpace=wrap;rounded=0;fontFamily=PT Serif;fontSize=30;FType=g;strokeWidth=2;" parent="1" vertex="1">
          <mxGeometry x="880" y="240" width="80" height="40" as="geometry" />
        </mxCell>
        <mxCell id="S-L6jYuYh9RfgFqw79Dy-19" value="$$a&#39;$$" style="text;html=1;strokeColor=none;fillColor=none;align=center;verticalAlign=middle;whiteSpace=wrap;rounded=0;fontFamily=PT Serif;fontSize=30;FType=g;strokeWidth=2;" parent="1" vertex="1">
          <mxGeometry x="480" y="520" width="80" height="40" as="geometry" />
        </mxCell>
      </root>
    </mxGraphModel>
  </diagram>
  <diagram name="beamed" id="d5inhXTCVP56ILw9BTdV">
    <mxGraphModel dx="1422" dy="2035" grid="1" gridSize="10" guides="1" tooltips="1" connect="1" arrows="1" fold="1" page="1" pageScale="1" pageWidth="827" pageHeight="1169" math="1" shadow="0" extFonts="PT Serif^https://fonts.googleapis.com/css?family=PT+Serif">
      <root>
        <mxCell id="pm9Vb_OEdu1XoLSXIvMU-0" />
        <mxCell id="pm9Vb_OEdu1XoLSXIvMU-1" parent="pm9Vb_OEdu1XoLSXIvMU-0" />
        <mxCell id="pm9Vb_OEdu1XoLSXIvMU-4" value="" style="endArrow=classic;html=1;strokeWidth=2;" parent="pm9Vb_OEdu1XoLSXIvMU-1" edge="1">
          <mxGeometry width="50" height="50" relative="1" as="geometry">
            <mxPoint x="480" as="sourcePoint" />
            <mxPoint x="480" y="560" as="targetPoint" />
          </mxGeometry>
        </mxCell>
        <mxCell id="pm9Vb_OEdu1XoLSXIvMU-5" value="" style="endArrow=classic;html=1;strokeWidth=2;" parent="pm9Vb_OEdu1XoLSXIvMU-1" edge="1">
          <mxGeometry width="50" height="50" relative="1" as="geometry">
            <mxPoint x="400" y="278.99999999999994" as="sourcePoint" />
            <mxPoint x="1360" y="279.16" as="targetPoint" />
          </mxGeometry>
        </mxCell>
        <mxCell id="pm9Vb_OEdu1XoLSXIvMU-6" value="" style="endArrow=classic;html=1;strokeWidth=2;" parent="pm9Vb_OEdu1XoLSXIvMU-1" edge="1">
          <mxGeometry width="50" height="50" relative="1" as="geometry">
            <mxPoint x="480" y="280" as="sourcePoint" />
            <mxPoint x="1280" y="360" as="targetPoint" />
          </mxGeometry>
        </mxCell>
        <mxCell id="pm9Vb_OEdu1XoLSXIvMU-7" value="" style="verticalLabelPosition=bottom;verticalAlign=top;html=1;shape=mxgraph.basic.arc;startAngle=0.25;endAngle=0.291680334396834;strokeWidth=2;" parent="pm9Vb_OEdu1XoLSXIvMU-1" vertex="1">
          <mxGeometry x="600" y="80" width="400" height="400" as="geometry" />
        </mxCell>
        <mxCell id="pm9Vb_OEdu1XoLSXIvMU-8" value="&lt;div style=&quot;font-size: 30px;&quot;&gt;$$\phi$$&lt;/div&gt;" style="text;html=1;strokeColor=none;fillColor=none;align=center;verticalAlign=middle;whiteSpace=wrap;rounded=0;fontSize=30;fontFamily=PT Serif;strokeWidth=2;" parent="pm9Vb_OEdu1XoLSXIvMU-1" vertex="1">
          <mxGeometry x="1000" y="280" width="80" height="40" as="geometry" />
        </mxCell>
        <mxCell id="pm9Vb_OEdu1XoLSXIvMU-10" value="$$v$$" style="text;html=1;strokeColor=none;fillColor=none;align=center;verticalAlign=middle;whiteSpace=wrap;rounded=0;fontFamily=PT Serif;fontSize=30;FType=g;strokeWidth=2;" parent="pm9Vb_OEdu1XoLSXIvMU-1" vertex="1">
          <mxGeometry x="1280" y="240" width="80" height="40" as="geometry" />
        </mxCell>
        <mxCell id="pm9Vb_OEdu1XoLSXIvMU-11" value="$$a&#39;$$" style="text;html=1;strokeColor=none;fillColor=none;align=center;verticalAlign=middle;whiteSpace=wrap;rounded=0;fontFamily=PT Serif;fontSize=30;FType=g;strokeWidth=2;" parent="pm9Vb_OEdu1XoLSXIvMU-1" vertex="1">
          <mxGeometry x="480" y="520" width="80" height="40" as="geometry" />
        </mxCell>
        <mxCell id="pm9Vb_OEdu1XoLSXIvMU-12" value="" style="curved=1;endArrow=none;html=1;fontFamily=PT Serif;fontSize=22;endFill=0;strokeWidth=2;" parent="pm9Vb_OEdu1XoLSXIvMU-1" edge="1">
          <mxGeometry width="50" height="50" relative="1" as="geometry">
            <mxPoint x="480" y="280" as="sourcePoint" />
            <mxPoint x="480" y="280" as="targetPoint" />
            <Array as="points">
              <mxPoint x="610" y="380" />
              <mxPoint x="440" y="320" />
              <mxPoint x="440" y="240" />
              <mxPoint x="610" y="180" />
            </Array>
          </mxGeometry>
        </mxCell>
        <mxCell id="pm9Vb_OEdu1XoLSXIvMU-14" value="" style="curved=1;endArrow=none;html=1;fontFamily=PT Serif;fontSize=22;endFill=0;strokeWidth=2;" parent="pm9Vb_OEdu1XoLSXIvMU-1" edge="1">
          <mxGeometry width="50" height="50" relative="1" as="geometry">
            <mxPoint x="480" y="280" as="sourcePoint" />
            <mxPoint x="480" y="280" as="targetPoint" />
            <Array as="points">
              <mxPoint x="1280" y="440" />
              <mxPoint x="1280" y="120" />
            </Array>
          </mxGeometry>
        </mxCell>
      </root>
    </mxGraphModel>
  </diagram>
  <diagram id="-Eva9Cug1z7mGioNT6zq" name="Page-3">
    <mxGraphModel dx="2249" dy="866" grid="1" gridSize="10" guides="1" tooltips="1" connect="1" arrows="1" fold="1" page="1" pageScale="1" pageWidth="827" pageHeight="1169" math="1" shadow="0" extFonts="PT Serif^https://fonts.googleapis.com/css?family=PT+Serif">
      <root>
        <mxCell id="QUnJeNcq3U_BUzJmbMja-0" />
        <mxCell id="QUnJeNcq3U_BUzJmbMja-1" parent="QUnJeNcq3U_BUzJmbMja-0" />
        <mxCell id="QUnJeNcq3U_BUzJmbMja-4" value="" style="verticalLabelPosition=bottom;verticalAlign=top;html=1;shape=mxgraph.basic.arc;startAngle=0.9707982578613296;endAngle=0.029499042433764264;fontFamily=PT Serif;fontSize=22;strokeWidth=2;" parent="QUnJeNcq3U_BUzJmbMja-1" vertex="1">
          <mxGeometry x="-240" y="120" width="1200" height="1200" as="geometry" />
        </mxCell>
        <mxCell id="QUnJeNcq3U_BUzJmbMja-2" value="" style="endArrow=none;dashed=1;html=1;fontFamily=PT Serif;fontSize=22;strokeWidth=2;" parent="QUnJeNcq3U_BUzJmbMja-1" edge="1">
          <mxGeometry width="50" height="50" relative="1" as="geometry">
            <mxPoint x="360" y="720" as="sourcePoint" />
            <mxPoint x="470" y="130" as="targetPoint" />
          </mxGeometry>
        </mxCell>
        <mxCell id="QUnJeNcq3U_BUzJmbMja-3" value="" style="endArrow=none;dashed=1;html=1;fontFamily=PT Serif;fontSize=22;strokeWidth=2;" parent="QUnJeNcq3U_BUzJmbMja-1" edge="1">
          <mxGeometry width="50" height="50" relative="1" as="geometry">
            <mxPoint x="360" y="720" as="sourcePoint" />
            <mxPoint x="250" y="130" as="targetPoint" />
          </mxGeometry>
        </mxCell>
        <mxCell id="QUnJeNcq3U_BUzJmbMja-9" value="" style="verticalLabelPosition=bottom;verticalAlign=top;html=1;shape=mxgraph.basic.arc;startAngle=0.9855710308118477;endAngle=0.014428969188152238;fontFamily=PT Serif;fontSize=22;strokeWidth=2;" parent="QUnJeNcq3U_BUzJmbMja-1" vertex="1">
          <mxGeometry x="-240" y="420" width="1200" height="1200" as="geometry" />
        </mxCell>
        <mxCell id="irenfQFO9XdoIQ3AdyHr-0" value="" style="curved=1;endArrow=none;html=1;fontFamily=PT Serif;fontSize=22;endFill=0;strokeWidth=2;" edge="1" parent="QUnJeNcq3U_BUzJmbMja-1">
          <mxGeometry width="50" height="50" relative="1" as="geometry">
            <mxPoint x="250" y="130" as="sourcePoint" />
            <mxPoint x="250" y="130" as="targetPoint" />
            <Array as="points">
              <mxPoint x="430" y="100" />
              <mxPoint x="400" y="30" />
            </Array>
          </mxGeometry>
        </mxCell>
        <mxCell id="rwfqSVn_YB-7H2t1o2GN-0" value="&lt;div style=&quot;font-size: 30px&quot;&gt;$$\phi \approx \frac{1}{\gamma}$$&lt;/div&gt;" style="text;html=1;strokeColor=none;fillColor=none;align=center;verticalAlign=middle;whiteSpace=wrap;rounded=0;fontSize=30;fontFamily=PT Serif;strokeWidth=2;direction=west;" vertex="1" parent="QUnJeNcq3U_BUzJmbMja-1">
          <mxGeometry x="260" y="280" width="200" height="120" as="geometry" />
        </mxCell>
        <mxCell id="rwfqSVn_YB-7H2t1o2GN-6" value="" style="curved=1;endArrow=none;html=1;strokeWidth=2;fontSize=30;endFill=0;" edge="1" parent="QUnJeNcq3U_BUzJmbMja-1">
          <mxGeometry width="50" height="50" relative="1" as="geometry">
            <mxPoint x="660" y="120" as="sourcePoint" />
            <mxPoint x="740" y="120" as="targetPoint" />
            <Array as="points">
              <mxPoint x="700" y="80" />
            </Array>
          </mxGeometry>
        </mxCell>
        <mxCell id="rwfqSVn_YB-7H2t1o2GN-7" value="" style="curved=1;endArrow=none;html=1;strokeWidth=2;fontSize=30;endFill=0;" edge="1" parent="QUnJeNcq3U_BUzJmbMja-1">
          <mxGeometry width="50" height="50" relative="1" as="geometry">
            <mxPoint x="660" y="120" as="sourcePoint" />
            <mxPoint x="740" y="120" as="targetPoint" />
            <Array as="points">
              <mxPoint x="700" y="160" />
            </Array>
          </mxGeometry>
        </mxCell>
        <mxCell id="rwfqSVn_YB-7H2t1o2GN-8" value="" style="ellipse;whiteSpace=wrap;html=1;aspect=fixed;strokeWidth=2;fontSize=30;fillColor=none;" vertex="1" parent="QUnJeNcq3U_BUzJmbMja-1">
          <mxGeometry x="690" y="110" width="20" height="20" as="geometry" />
        </mxCell>
        <mxCell id="rwfqSVn_YB-7H2t1o2GN-11" value="" style="endArrow=classic;html=1;strokeWidth=2;fontSize=30;" edge="1" parent="QUnJeNcq3U_BUzJmbMja-1">
          <mxGeometry width="50" height="50" relative="1" as="geometry">
            <mxPoint x="382" y="120" as="sourcePoint" />
            <mxPoint x="382" y="120" as="targetPoint" />
            <Array as="points">
              <mxPoint x="372" y="120" />
            </Array>
          </mxGeometry>
        </mxCell>
        <mxCell id="rwfqSVn_YB-7H2t1o2GN-12" value="$$r_\mathrm{g}$$" style="text;html=1;strokeColor=none;fillColor=none;align=center;verticalAlign=middle;whiteSpace=wrap;rounded=0;fontSize=30;" vertex="1" parent="QUnJeNcq3U_BUzJmbMja-1">
          <mxGeometry x="420" y="500" width="40" height="20" as="geometry" />
        </mxCell>
        <mxCell id="rwfqSVn_YB-7H2t1o2GN-18" value="" style="shape=sumEllipse;perimeter=ellipsePerimeter;whiteSpace=wrap;html=1;backgroundOutline=1;strokeWidth=2;fillColor=none;fontSize=30;" vertex="1" parent="QUnJeNcq3U_BUzJmbMja-1">
          <mxGeometry x="680" y="500" width="40" height="40" as="geometry" />
        </mxCell>
        <mxCell id="rwfqSVn_YB-7H2t1o2GN-19" value="" style="shape=sumEllipse;perimeter=ellipsePerimeter;whiteSpace=wrap;html=1;backgroundOutline=1;strokeWidth=2;fillColor=none;fontSize=30;" vertex="1" parent="QUnJeNcq3U_BUzJmbMja-1">
          <mxGeometry x="680" y="300" width="40" height="40" as="geometry" />
        </mxCell>
        <mxCell id="rwfqSVn_YB-7H2t1o2GN-23" value="" style="shape=sumEllipse;perimeter=ellipsePerimeter;whiteSpace=wrap;html=1;backgroundOutline=1;strokeWidth=2;fillColor=none;fontSize=30;" vertex="1" parent="QUnJeNcq3U_BUzJmbMja-1">
          <mxGeometry x="40" y="500" width="40" height="40" as="geometry" />
        </mxCell>
        <mxCell id="rwfqSVn_YB-7H2t1o2GN-24" value="" style="shape=sumEllipse;perimeter=ellipsePerimeter;whiteSpace=wrap;html=1;backgroundOutline=1;strokeWidth=2;fillColor=none;fontSize=30;" vertex="1" parent="QUnJeNcq3U_BUzJmbMja-1">
          <mxGeometry x="40" y="300" width="40" height="40" as="geometry" />
        </mxCell>
        <mxCell id="rwfqSVn_YB-7H2t1o2GN-27" value="" style="shape=sumEllipse;perimeter=ellipsePerimeter;whiteSpace=wrap;html=1;backgroundOutline=1;strokeWidth=2;fillColor=none;fontSize=30;" vertex="1" parent="QUnJeNcq3U_BUzJmbMja-1">
          <mxGeometry x="40" y="100" width="40" height="40" as="geometry" />
        </mxCell>
        <mxCell id="rwfqSVn_YB-7H2t1o2GN-31" value="$$a$$" style="text;html=1;strokeColor=none;fillColor=none;align=center;verticalAlign=middle;whiteSpace=wrap;rounded=0;fontSize=30;fontFamily=PT Serif;fontStyle=2" vertex="1" parent="QUnJeNcq3U_BUzJmbMja-1">
          <mxGeometry x="190" y="90" width="80" height="40" as="geometry" />
        </mxCell>
        <mxCell id="rwfqSVn_YB-7H2t1o2GN-32" value="$$b$$" style="text;html=1;strokeColor=none;fillColor=none;align=center;verticalAlign=middle;whiteSpace=wrap;rounded=0;fontSize=30;fontFamily=PT Serif;fontStyle=2" vertex="1" parent="QUnJeNcq3U_BUzJmbMja-1">
          <mxGeometry x="450" y="90" width="80" height="40" as="geometry" />
        </mxCell>
        <mxCell id="rwfqSVn_YB-7H2t1o2GN-33" value="$$l$$" style="text;html=1;strokeColor=none;fillColor=none;align=center;verticalAlign=middle;whiteSpace=wrap;rounded=0;fontSize=30;fontFamily=PT Serif;fontStyle=0" vertex="1" parent="QUnJeNcq3U_BUzJmbMja-1">
          <mxGeometry x="320" y="140" width="80" height="40" as="geometry" />
        </mxCell>
        <mxCell id="rwfqSVn_YB-7H2t1o2GN-34" value="" style="curved=1;endArrow=none;html=1;fontFamily=PT Serif;fontSize=22;endFill=0;strokeWidth=2;" edge="1" parent="QUnJeNcq3U_BUzJmbMja-1">
          <mxGeometry width="50" height="50" relative="1" as="geometry">
            <mxPoint x="470" y="130" as="sourcePoint" />
            <mxPoint x="470" y="130" as="targetPoint" />
            <Array as="points">
              <mxPoint x="650" y="160" />
              <mxPoint x="620" y="230" />
            </Array>
          </mxGeometry>
        </mxCell>
      </root>
    </mxGraphModel>
  </diagram>
  <diagram name="Copy of Page-3" id="VhE-tyJg8aRB05D8zwk5">
    <mxGraphModel dx="2012" dy="1868" grid="1" gridSize="10" guides="1" tooltips="1" connect="1" arrows="1" fold="1" page="1" pageScale="1" pageWidth="827" pageHeight="1169" math="1" shadow="0" extFonts="PT Serif^https://fonts.googleapis.com/css?family=PT+Serif">
      <root>
        <mxCell id="923-cQsQMxazOsAJglMK-0" />
        <mxCell id="923-cQsQMxazOsAJglMK-1" parent="923-cQsQMxazOsAJglMK-0" />
        <mxCell id="923-cQsQMxazOsAJglMK-25" value="" style="ellipse;whiteSpace=wrap;html=1;strokeWidth=2;fontFamily=PT Serif;fontSize=30;fillColor=#E6E6E6;" vertex="1" parent="923-cQsQMxazOsAJglMK-1">
          <mxGeometry x="-800" y="40" width="640" height="320" as="geometry" />
        </mxCell>
        <mxCell id="923-cQsQMxazOsAJglMK-22" value="" style="ellipse;whiteSpace=wrap;html=1;strokeWidth=2;fillColor=none;fontFamily=PT Serif;fontSize=30;" vertex="1" parent="923-cQsQMxazOsAJglMK-1">
          <mxGeometry x="-760" y="80" width="560" height="240" as="geometry" />
        </mxCell>
        <mxCell id="923-cQsQMxazOsAJglMK-24" value="" style="ellipse;whiteSpace=wrap;html=1;strokeWidth=2;fontFamily=PT Serif;fontSize=30;" vertex="1" parent="923-cQsQMxazOsAJglMK-1">
          <mxGeometry x="-720" y="120" width="480" height="160" as="geometry" />
        </mxCell>
        <mxCell id="923-cQsQMxazOsAJglMK-26" value="" style="endArrow=none;html=1;strokeWidth=2;fontFamily=PT Serif;fontSize=30;entryX=0.5;entryY=1;entryDx=0;entryDy=0;" edge="1" parent="923-cQsQMxazOsAJglMK-1" target="923-cQsQMxazOsAJglMK-25">
          <mxGeometry width="50" height="50" relative="1" as="geometry">
            <mxPoint x="-480" y="680" as="sourcePoint" />
            <mxPoint x="-480" as="targetPoint" />
          </mxGeometry>
        </mxCell>
        <mxCell id="923-cQsQMxazOsAJglMK-27" value="" style="endArrow=none;html=1;strokeWidth=2;fontFamily=PT Serif;fontSize=30;entryX=0.988;entryY=0.608;entryDx=0;entryDy=0;entryPerimeter=0;" edge="1" parent="923-cQsQMxazOsAJglMK-1" target="923-cQsQMxazOsAJglMK-22">
          <mxGeometry width="50" height="50" relative="1" as="geometry">
            <mxPoint x="-480" y="680" as="sourcePoint" />
            <mxPoint x="-400" as="targetPoint" />
          </mxGeometry>
        </mxCell>
        <mxCell id="923-cQsQMxazOsAJglMK-28" value="" style="endArrow=none;html=1;strokeWidth=2;fontFamily=PT Serif;fontSize=30;entryX=0.973;entryY=0.663;entryDx=0;entryDy=0;entryPerimeter=0;" edge="1" parent="923-cQsQMxazOsAJglMK-1" target="923-cQsQMxazOsAJglMK-25">
          <mxGeometry width="50" height="50" relative="1" as="geometry">
            <mxPoint x="-480" y="680" as="sourcePoint" />
            <mxPoint x="-160.00000000000003" y="250.00000000000009" as="targetPoint" />
          </mxGeometry>
        </mxCell>
        <mxCell id="923-cQsQMxazOsAJglMK-29" value="" style="endArrow=none;html=1;strokeWidth=2;fontFamily=PT Serif;fontSize=30;entryX=0.5;entryY=1;entryDx=0;entryDy=0;" edge="1" parent="923-cQsQMxazOsAJglMK-1">
          <mxGeometry width="50" height="50" relative="1" as="geometry">
            <mxPoint x="-480.5" y="280" as="sourcePoint" />
            <mxPoint x="-480.5" y="-40" as="targetPoint" />
          </mxGeometry>
        </mxCell>
        <mxCell id="923-cQsQMxazOsAJglMK-30" value="" style="endArrow=classic;html=1;strokeWidth=2;fontFamily=PT Serif;fontSize=30;" edge="1" parent="923-cQsQMxazOsAJglMK-1">
          <mxGeometry width="50" height="50" relative="1" as="geometry">
            <mxPoint x="-780" y="680" as="sourcePoint" />
            <mxPoint x="-780" y="520" as="targetPoint" />
          </mxGeometry>
        </mxCell>
        <mxCell id="923-cQsQMxazOsAJglMK-31" value="" style="endArrow=classic;html=1;strokeWidth=2;fontFamily=PT Serif;fontSize=30;" edge="1" parent="923-cQsQMxazOsAJglMK-1">
          <mxGeometry width="50" height="50" relative="1" as="geometry">
            <mxPoint x="-180" y="680" as="sourcePoint" />
            <mxPoint x="-180" y="520" as="targetPoint" />
          </mxGeometry>
        </mxCell>
        <mxCell id="923-cQsQMxazOsAJglMK-32" value="" style="endArrow=classic;html=1;strokeWidth=2;fontFamily=PT Serif;fontSize=30;" edge="1" parent="923-cQsQMxazOsAJglMK-1">
          <mxGeometry width="50" height="50" relative="1" as="geometry">
            <mxPoint x="-660" y="680" as="sourcePoint" />
            <mxPoint x="-660" y="520" as="targetPoint" />
          </mxGeometry>
        </mxCell>
        <mxCell id="923-cQsQMxazOsAJglMK-33" value="" style="endArrow=classic;html=1;strokeWidth=2;fontFamily=PT Serif;fontSize=30;" edge="1" parent="923-cQsQMxazOsAJglMK-1">
          <mxGeometry width="50" height="50" relative="1" as="geometry">
            <mxPoint x="-300" y="680" as="sourcePoint" />
            <mxPoint x="-300" y="520" as="targetPoint" />
          </mxGeometry>
        </mxCell>
        <mxCell id="923-cQsQMxazOsAJglMK-34" value="" style="curved=1;endArrow=classic;html=1;strokeWidth=2;fontFamily=PT Serif;fontSize=30;" edge="1" parent="923-cQsQMxazOsAJglMK-1">
          <mxGeometry width="50" height="50" relative="1" as="geometry">
            <mxPoint x="-450" y="820" as="sourcePoint" />
            <mxPoint x="-510" y="680" as="targetPoint" />
            <Array as="points">
              <mxPoint x="-480" y="820" />
              <mxPoint x="-520" y="800" />
              <mxPoint x="-480" y="800" />
              <mxPoint x="-440" y="780" />
              <mxPoint x="-480" y="780" />
              <mxPoint x="-520" y="760" />
              <mxPoint x="-480" y="760" />
              <mxPoint x="-440" y="740" />
              <mxPoint x="-480" y="740" />
              <mxPoint x="-520" y="720" />
              <mxPoint x="-480" y="720" />
              <mxPoint x="-440" y="700" />
              <mxPoint x="-480" y="700" />
            </Array>
          </mxGeometry>
        </mxCell>
        <mxCell id="923-cQsQMxazOsAJglMK-37" value="" style="endArrow=none;html=1;strokeWidth=2;fontFamily=PT Serif;fontSize=30;entryX=0.009;entryY=0.596;entryDx=0;entryDy=0;entryPerimeter=0;" edge="1" parent="923-cQsQMxazOsAJglMK-1" target="923-cQsQMxazOsAJglMK-22">
          <mxGeometry width="50" height="50" relative="1" as="geometry">
            <mxPoint x="-480" y="680" as="sourcePoint" />
            <mxPoint x="-747" y="235" as="targetPoint" />
          </mxGeometry>
        </mxCell>
        <mxCell id="923-cQsQMxazOsAJglMK-38" value="" style="verticalLabelPosition=bottom;verticalAlign=top;html=1;shape=mxgraph.basic.arc;startAngle=0.9434886076224489;endAngle=0;strokeWidth=2;fillColor=#ffffff;fontFamily=PT Serif;fontSize=30;" vertex="1" parent="923-cQsQMxazOsAJglMK-1">
          <mxGeometry x="-730" y="520" width="500" height="500" as="geometry" />
        </mxCell>
        <mxCell id="923-cQsQMxazOsAJglMK-39" value="$$B$$" style="text;html=1;strokeColor=none;fillColor=none;align=center;verticalAlign=middle;whiteSpace=wrap;rounded=0;fontFamily=PT Serif;fontSize=30;" vertex="1" parent="923-cQsQMxazOsAJglMK-1">
          <mxGeometry x="-280" y="600" width="80" height="40" as="geometry" />
        </mxCell>
        <mxCell id="2" value="$$\theta$$" style="text;html=1;align=center;verticalAlign=middle;resizable=0;points=[];autosize=1;fontSize=30;fontFamily=PT Serif;" vertex="1" parent="923-cQsQMxazOsAJglMK-1">
          <mxGeometry x="-620" y="440" width="160" height="40" as="geometry" />
        </mxCell>
        <mxCell id="923-cQsQMxazOsAJglMK-47" value="" style="verticalLabelPosition=bottom;verticalAlign=top;html=1;shape=mxgraph.basic.arc;startAngle=0.05634044191365725;endAngle=0.065079702246515;strokeWidth=2;fillColor=#ffffff;fontFamily=PT Serif;fontSize=30;" vertex="1" parent="923-cQsQMxazOsAJglMK-1">
          <mxGeometry x="-730" y="520" width="500" height="500" as="geometry" />
        </mxCell>
        <mxCell id="923-cQsQMxazOsAJglMK-48" value="$$\frac{1}{\gamma}$$" style="text;html=1;align=center;verticalAlign=middle;resizable=0;points=[];autosize=1;fontSize=30;fontFamily=PT Serif;" vertex="1" parent="923-cQsQMxazOsAJglMK-1">
          <mxGeometry x="-350" y="380" width="310" height="40" as="geometry" />
        </mxCell>
        <mxCell id="923-cQsQMxazOsAJglMK-50" value="" style="curved=1;endArrow=classic;html=1;strokeWidth=2;fontFamily=PT Serif;fontSize=30;" edge="1" parent="923-cQsQMxazOsAJglMK-1">
          <mxGeometry width="50" height="50" relative="1" as="geometry">
            <mxPoint x="-220" y="400" as="sourcePoint" />
            <mxPoint x="-300" y="400" as="targetPoint" />
            <Array as="points">
              <mxPoint x="-260" y="360" />
            </Array>
          </mxGeometry>
        </mxCell>
      </root>
    </mxGraphModel>
  </diagram>
  <diagram id="OA8rCZjFsm5WSdHG5BLy" name="Page-5">
    <mxGraphModel dx="1185" dy="722" grid="1" gridSize="10" guides="1" tooltips="1" connect="1" arrows="1" fold="1" page="1" pageScale="1" pageWidth="827" pageHeight="1169" math="0" shadow="0">
      <root>
        <mxCell id="OdYCoRH1sc0ENWr2VOVW-0" />
        <mxCell id="OdYCoRH1sc0ENWr2VOVW-1" parent="OdYCoRH1sc0ENWr2VOVW-0" />
        <mxCell id="OdYCoRH1sc0ENWr2VOVW-15" value="" style="ellipse;whiteSpace=wrap;html=1;aspect=fixed;strokeWidth=2;fontFamily=PT Serif;fontSize=30;fillColor=none;" vertex="1" parent="OdYCoRH1sc0ENWr2VOVW-1">
          <mxGeometry x="920" y="520" width="40" height="40" as="geometry" />
        </mxCell>
        <mxCell id="OdYCoRH1sc0ENWr2VOVW-16" value="" style="verticalLabelPosition=bottom;verticalAlign=top;html=1;shape=mxgraph.basic.arc;startAngle=0.044922663932729305;endAngle=0.9521571216913015;strokeWidth=2;fillColor=none;fontFamily=PT Serif;fontSize=30;" vertex="1" parent="OdYCoRH1sc0ENWr2VOVW-1">
          <mxGeometry x="880" y="530" width="120" height="20" as="geometry" />
        </mxCell>
        <mxCell id="OdYCoRH1sc0ENWr2VOVW-17" value="" style="ellipse;whiteSpace=wrap;html=1;aspect=fixed;strokeWidth=2;fillColor=none;fontFamily=PT Serif;fontSize=30;" vertex="1" parent="OdYCoRH1sc0ENWr2VOVW-1">
          <mxGeometry x="720" y="500" width="80" height="80" as="geometry" />
        </mxCell>
        <mxCell id="OdYCoRH1sc0ENWr2VOVW-18" value="" style="ellipse;whiteSpace=wrap;html=1;aspect=fixed;strokeWidth=2;fillColor=none;fontFamily=PT Serif;fontSize=30;" vertex="1" parent="OdYCoRH1sc0ENWr2VOVW-1">
          <mxGeometry x="1080" y="500" width="80" height="80" as="geometry" />
        </mxCell>
        <mxCell id="OdYCoRH1sc0ENWr2VOVW-19" value="" style="curved=1;endArrow=none;html=1;strokeWidth=2;fontFamily=PT Serif;fontSize=30;endFill=0;exitX=0;exitY=0.5;exitDx=0;exitDy=0;entryX=1;entryY=0.5;entryDx=0;entryDy=0;" edge="1" parent="OdYCoRH1sc0ENWr2VOVW-1" source="OdYCoRH1sc0ENWr2VOVW-17" target="OdYCoRH1sc0ENWr2VOVW-18">
          <mxGeometry width="50" height="50" relative="1" as="geometry">
            <mxPoint x="730" y="370" as="sourcePoint" />
            <mxPoint x="1050" y="370" as="targetPoint" />
            <Array as="points">
              <mxPoint x="720" y="360" />
              <mxPoint x="1160" y="360" />
            </Array>
          </mxGeometry>
        </mxCell>
        <mxCell id="OdYCoRH1sc0ENWr2VOVW-20" value="" style="curved=1;endArrow=none;html=1;strokeWidth=2;fontFamily=PT Serif;fontSize=30;endFill=0;exitX=1;exitY=0.5;exitDx=0;exitDy=0;entryX=0;entryY=0.5;entryDx=0;entryDy=0;" edge="1" parent="OdYCoRH1sc0ENWr2VOVW-1" source="OdYCoRH1sc0ENWr2VOVW-17" target="OdYCoRH1sc0ENWr2VOVW-18">
          <mxGeometry width="50" height="50" relative="1" as="geometry">
            <mxPoint x="800" y="520" as="sourcePoint" />
            <mxPoint x="1079" y="530" as="targetPoint" />
            <Array as="points">
              <mxPoint x="800" y="440" />
              <mxPoint x="1079" y="440" />
            </Array>
          </mxGeometry>
        </mxCell>
        <mxCell id="OdYCoRH1sc0ENWr2VOVW-21" value="" style="endArrow=none;html=1;strokeColor=#000000;strokeWidth=2;fontFamily=PT Serif;fontSize=30;exitX=0.635;exitY=0.05;exitDx=0;exitDy=0;exitPerimeter=0;" edge="1" parent="OdYCoRH1sc0ENWr2VOVW-1" source="OdYCoRH1sc0ENWr2VOVW-15">
          <mxGeometry width="50" height="50" relative="1" as="geometry">
            <mxPoint x="950" y="320" as="sourcePoint" />
            <mxPoint x="1000" y="160" as="targetPoint" />
          </mxGeometry>
        </mxCell>
        <mxCell id="OdYCoRH1sc0ENWr2VOVW-22" value="" style="endArrow=none;html=1;strokeColor=#000000;strokeWidth=2;fontFamily=PT Serif;fontSize=30;" edge="1" parent="OdYCoRH1sc0ENWr2VOVW-1">
          <mxGeometry width="50" height="50" relative="1" as="geometry">
            <mxPoint x="934" y="523" as="sourcePoint" />
            <mxPoint x="840" y="160" as="targetPoint" />
          </mxGeometry>
        </mxCell>
        <mxCell id="OdYCoRH1sc0ENWr2VOVW-23" value="" style="curved=1;endArrow=none;html=1;strokeWidth=2;fontFamily=PT Serif;fontSize=30;endFill=0;exitX=0.698;exitY=0.002;exitDx=0;exitDy=0;entryX=0.24;entryY=0.085;entryDx=0;entryDy=0;exitPerimeter=0;entryPerimeter=0;" edge="1" parent="OdYCoRH1sc0ENWr2VOVW-1" source="OdYCoRH1sc0ENWr2VOVW-17" target="OdYCoRH1sc0ENWr2VOVW-18">
          <mxGeometry width="50" height="50" relative="1" as="geometry">
            <mxPoint x="800" y="500" as="sourcePoint" />
            <mxPoint x="1080" y="500" as="targetPoint" />
            <Array as="points">
              <mxPoint x="800" y="400" />
              <mxPoint x="1079" y="400" />
            </Array>
          </mxGeometry>
        </mxCell>
      </root>
    </mxGraphModel>
  </diagram>
</mxfile>
